<svg width="65" height="65" viewBox="0 0 65 65" fill="none" xmlns="http://www.w3.org/2000/svg">
<path d="M18.85 0H46.15C56.55 0 65 8.45 65 18.85V46.15C65 51.1493 63.014 55.9439 59.479 59.479C55.9439 63.014 51.1493 65 46.15 65H18.85C8.45 65 0 56.55 0 46.15V18.85C0 13.8507 1.98598 9.0561 5.52104 5.52104C9.0561 1.98598 13.8507 0 18.85 0ZM18.2 6.5C15.097 6.5 12.121 7.73268 9.92685 9.92685C7.73268 12.121 6.5 15.097 6.5 18.2V46.8C6.5 53.2675 11.7325 58.5 18.2 58.5H46.8C49.903 58.5 52.879 57.2673 55.0732 55.0732C57.2673 52.879 58.5 49.903 58.5 46.8V18.2C58.5 11.7325 53.2675 6.5 46.8 6.5H18.2ZM49.5625 11.375C50.6399 11.375 51.6733 11.803 52.4351 12.5649C53.197 13.3267 53.625 14.3601 53.625 15.4375C53.625 16.5149 53.197 17.5483 52.4351 18.3101C51.6733 19.072 50.6399 19.5 49.5625 19.5C48.4851 19.5 47.4517 19.072 46.6899 18.3101C45.928 17.5483 45.5 16.5149 45.5 15.4375C45.5 14.3601 45.928 13.3267 46.6899 12.5649C47.4517 11.803 48.4851 11.375 49.5625 11.375ZM32.5 16.25C36.8098 16.25 40.943 17.962 43.9905 21.0095C47.038 24.057 48.75 28.1902 48.75 32.5C48.75 36.8098 47.038 40.943 43.9905 43.9905C40.943 47.038 36.8098 48.75 32.5 48.75C28.1902 48.75 24.057 47.038 21.0095 43.9905C17.962 40.943 16.25 36.8098 16.25 32.5C16.25 28.1902 17.962 24.057 21.0095 21.0095C24.057 17.962 28.1902 16.25 32.5 16.25ZM32.5 22.75C29.9141 22.75 27.4342 23.7772 25.6057 25.6057C23.7772 27.4342 22.75 29.9141 22.75 32.5C22.75 35.0859 23.7772 37.5658 25.6057 39.3943C27.4342 41.2228 29.9141 42.25 32.5 42.25C35.0859 42.25 37.5658 41.2228 39.3943 39.3943C41.2228 37.5658 42.25 35.0859 42.25 32.5C42.25 29.9141 41.2228 27.4342 39.3943 25.6057C37.5658 23.7772 35.0859 22.75 32.5 22.75Z" fill="black"/>
</svg>
