<svg width="65" height="65" viewBox="0 0 65 65" fill="none" xmlns="http://www.w3.org/2000/svg">
<path d="M55.5276 9.45765C52.5326 6.4485 48.9656 4.06255 45.0346 2.43885C41.1035 0.815138 36.887 -0.0138553 32.6306 0.000175159C14.7965 0.000175159 0.261307 14.4626 0.261307 32.2076C0.261307 37.8951 1.76382 43.4201 4.57286 48.2951L0 65L17.1482 60.515C21.8844 63.0825 27.2085 64.4475 32.6306 64.4475C50.4648 64.4475 65 49.985 65 32.2401C65 23.6276 61.6357 15.5351 55.5276 9.45765ZM32.6306 58.9875C27.7965 58.9875 23.0603 57.6875 18.9121 55.25L17.9322 54.665L7.74121 57.33L10.4523 47.4501L9.799 46.4426C7.11259 42.1755 5.68644 37.2427 5.68342 32.2076C5.68342 17.4526 17.7688 5.42766 32.598 5.42766C39.7839 5.42766 46.5452 8.22265 51.608 13.2926C54.1153 15.7752 56.1022 18.7284 57.4535 21.9809C58.8048 25.2335 59.4936 28.7206 59.4799 32.2401C59.5452 46.9951 47.4598 58.9875 32.6306 58.9875ZM47.3945 38.9676C46.5779 38.5776 42.593 36.6276 41.8744 36.3351C41.1231 36.0751 40.6005 35.9451 40.0452 36.7251C39.4899 37.5376 37.9548 39.3576 37.4975 39.8776C37.0402 40.4301 36.5502 40.4951 35.7337 40.0726C34.9171 39.6826 32.304 38.8051 29.2337 36.0751C26.8166 33.9301 25.2161 31.2976 24.7261 30.4851C24.2688 29.6726 24.6608 29.2501 25.0854 28.8276C25.4447 28.4701 25.902 27.8851 26.294 27.4301C26.6859 26.9751 26.8492 26.6176 27.1106 26.0976C27.3719 25.5451 27.2412 25.0901 27.0452 24.7001C26.8492 24.3101 25.2161 20.3451 24.5628 18.7201C23.9095 17.1601 23.2236 17.3551 22.7337 17.3226H21.1658C20.6105 17.3226 19.7613 17.5176 19.01 18.3301C18.2915 19.1426 16.201 21.0926 16.201 25.0576C16.201 29.0226 19.108 32.8576 19.5 33.3776C19.892 33.9301 25.2161 42.0551 33.3166 45.5326C35.2437 46.3776 36.7462 46.8651 37.9221 47.2226C39.8492 47.8401 41.6131 47.7425 43.0176 47.5476C44.5854 47.32 47.8191 45.5976 48.4724 43.7126C49.1583 41.8276 49.1583 40.2351 48.9296 39.8776C48.701 39.5201 48.211 39.3576 47.3945 38.9676Z" fill="black"/>
</svg>
