<svg xmlns="http://www.w3.org/2000/svg" xmlns:xlink="http://www.w3.org/1999/xlink" width="505" zoomAndPan="magnify" viewBox="0 0 378.75 235.499993" height="314" preserveAspectRatio="xMidYMid meet" version="1.0"><defs><clipPath id="38b81f3d10"><path d="M 0.277344 0 L 230.039062 0 L 230.039062 229.761719 L 0.277344 229.761719 Z M 0.277344 0 " clip-rule="nonzero"/></clipPath><clipPath id="25118a6ef0"><path d="M 14.527344 14.25 L 215.851562 14.25 L 215.851562 215.574219 L 14.527344 215.574219 Z M 14.527344 14.25 " clip-rule="nonzero"/></clipPath><clipPath id="1921b588ad"><path d="M 148.277344 4.535156 L 378.039062 4.535156 L 378.039062 234.296875 L 148.277344 234.296875 Z M 148.277344 4.535156 " clip-rule="nonzero"/></clipPath><clipPath id="22932f4727"><path d="M 162.527344 18.785156 L 363.851562 18.785156 L 363.851562 220.109375 L 162.527344 220.109375 Z M 162.527344 18.785156 " clip-rule="nonzero"/></clipPath></defs><g clip-path="url(#38b81f3d10)"><path fill="#ffffff" d="M 230.035156 114.878906 C 230.035156 116.757812 229.988281 118.636719 229.898438 120.515625 C 229.804688 122.394531 229.667969 124.269531 229.480469 126.140625 C 229.296875 128.011719 229.066406 129.875 228.792969 131.734375 C 228.515625 133.59375 228.195312 135.445312 227.828125 137.292969 C 227.460938 139.136719 227.050781 140.96875 226.59375 142.792969 C 226.136719 144.617188 225.632812 146.429688 225.089844 148.226562 C 224.542969 150.027344 223.953125 151.8125 223.320312 153.582031 C 222.6875 155.351562 222.011719 157.105469 221.289062 158.839844 C 220.570312 160.578125 219.808594 162.296875 219.003906 163.996094 C 218.203125 165.695312 217.355469 167.375 216.46875 169.03125 C 215.585938 170.691406 214.65625 172.328125 213.691406 173.9375 C 212.722656 175.550781 211.71875 177.140625 210.675781 178.703125 C 209.628906 180.265625 208.546875 181.804688 207.429688 183.3125 C 206.308594 184.824219 205.152344 186.304688 203.957031 187.757812 C 202.765625 189.210938 201.539062 190.632812 200.277344 192.027344 C 199.011719 193.421875 197.71875 194.78125 196.386719 196.113281 C 195.058594 197.441406 193.695312 198.738281 192.304688 200 C 190.910156 201.261719 189.488281 202.488281 188.035156 203.683594 C 186.582031 204.875 185.097656 206.03125 183.589844 207.152344 C 182.078125 208.269531 180.542969 209.351562 178.980469 210.398438 C 177.417969 211.441406 175.828125 212.449219 174.214844 213.414062 C 172.601562 214.382812 170.96875 215.308594 169.308594 216.195312 C 167.652344 217.082031 165.972656 217.925781 164.273438 218.730469 C 162.574219 219.53125 160.855469 220.292969 159.117188 221.015625 C 157.382812 221.734375 155.628906 222.410156 153.859375 223.042969 C 152.085938 223.675781 150.300781 224.265625 148.503906 224.8125 C 146.703125 225.359375 144.894531 225.859375 143.070312 226.316406 C 141.246094 226.773438 139.410156 227.183594 137.566406 227.550781 C 135.722656 227.917969 133.871094 228.238281 132.011719 228.515625 C 130.152344 228.792969 128.285156 229.019531 126.414062 229.207031 C 124.546875 229.390625 122.671875 229.527344 120.792969 229.621094 C 118.914062 229.710938 117.035156 229.757812 115.15625 229.757812 C 113.277344 229.757812 111.398438 229.710938 109.519531 229.621094 C 107.640625 229.527344 105.765625 229.390625 103.894531 229.207031 C 102.023438 229.019531 100.160156 228.792969 98.300781 228.515625 C 96.441406 228.238281 94.589844 227.917969 92.742188 227.550781 C 90.898438 227.183594 89.066406 226.773438 87.242188 226.316406 C 85.417969 225.859375 83.605469 225.359375 81.808594 224.8125 C 80.007812 224.265625 78.222656 223.675781 76.453125 223.042969 C 74.683594 222.410156 72.929688 221.734375 71.195312 221.015625 C 69.457031 220.292969 67.738281 219.53125 66.039062 218.730469 C 64.339844 217.925781 62.660156 217.082031 61.003906 216.195312 C 59.34375 215.308594 57.707031 214.382812 56.097656 213.414062 C 54.484375 212.449219 52.894531 211.441406 51.332031 210.398438 C 49.769531 209.355469 48.230469 208.269531 46.722656 207.152344 C 45.210938 206.03125 43.730469 204.875 42.277344 203.683594 C 40.824219 202.488281 39.402344 201.261719 38.007812 200 C 36.613281 198.738281 35.253906 197.441406 33.925781 196.113281 C 32.59375 194.78125 31.296875 193.421875 30.035156 192.027344 C 28.773438 190.632812 27.546875 189.210938 26.351562 187.757812 C 25.160156 186.304688 24.003906 184.824219 22.882812 183.3125 C 21.765625 181.804688 20.683594 180.265625 19.636719 178.703125 C 18.59375 177.140625 17.585938 175.550781 16.621094 173.9375 C 15.652344 172.328125 14.726562 170.691406 13.839844 169.03125 C 12.953125 167.375 12.109375 165.695312 11.304688 163.996094 C 10.503906 162.296875 9.742188 160.578125 9.019531 158.839844 C 8.300781 157.105469 7.625 155.351562 6.992188 153.582031 C 6.359375 151.8125 5.769531 150.027344 5.222656 148.226562 C 4.675781 146.429688 4.175781 144.617188 3.71875 142.792969 C 3.261719 140.96875 2.851562 139.136719 2.484375 137.292969 C 2.117188 135.445312 1.796875 133.59375 1.519531 131.734375 C 1.242188 129.875 1.015625 128.011719 0.828125 126.140625 C 0.644531 124.269531 0.507812 122.394531 0.414062 120.515625 C 0.324219 118.636719 0.277344 116.757812 0.277344 114.878906 C 0.277344 113 0.324219 111.121094 0.414062 109.242188 C 0.507812 107.363281 0.644531 105.492188 0.828125 103.621094 C 1.015625 101.75 1.242188 99.882812 1.519531 98.023438 C 1.796875 96.164062 2.117188 94.3125 2.484375 92.46875 C 2.851562 90.625 3.261719 88.789062 3.71875 86.964844 C 4.175781 85.140625 4.675781 83.332031 5.222656 81.53125 C 5.769531 79.734375 6.359375 77.949219 6.992188 76.175781 C 7.625 74.40625 8.300781 72.652344 9.019531 70.917969 C 9.742188 69.179688 10.503906 67.460938 11.304688 65.761719 C 12.109375 64.0625 12.953125 62.382812 13.839844 60.726562 C 14.726562 59.066406 15.652344 57.433594 16.621094 55.820312 C 17.585938 54.207031 18.59375 52.617188 19.636719 51.054688 C 20.683594 49.492188 21.765625 47.957031 22.882812 46.445312 C 24.003906 44.9375 25.160156 43.453125 26.351562 42 C 27.546875 40.546875 28.773438 39.125 30.035156 37.730469 C 31.296875 36.339844 32.59375 34.976562 33.925781 33.648438 C 35.253906 32.316406 36.613281 31.023438 38.007812 29.757812 C 39.402344 28.496094 40.824219 27.269531 42.277344 26.078125 C 43.730469 24.882812 45.210938 23.726562 46.722656 22.605469 C 48.230469 21.488281 49.769531 20.40625 51.332031 19.359375 C 52.894531 18.316406 54.484375 17.3125 56.097656 16.34375 C 57.707031 15.378906 59.34375 14.449219 61.003906 13.566406 C 62.660156 12.679688 64.339844 11.832031 66.039062 11.03125 C 67.738281 10.226562 69.457031 9.464844 71.195312 8.746094 C 72.929688 8.023438 74.683594 7.347656 76.453125 6.714844 C 78.222656 6.082031 80.007812 5.492188 81.808594 4.945312 C 83.605469 4.402344 85.417969 3.898438 87.242188 3.441406 C 89.066406 2.984375 90.898438 2.574219 92.742188 2.207031 C 94.589844 1.839844 96.441406 1.519531 98.300781 1.242188 C 100.160156 0.96875 102.023438 0.738281 103.894531 0.554688 C 105.765625 0.367188 107.640625 0.230469 109.519531 0.136719 C 111.398438 0.046875 113.277344 0 115.15625 0 C 117.035156 0 118.914062 0.046875 120.792969 0.136719 C 122.671875 0.230469 124.546875 0.367188 126.414062 0.554688 C 128.285156 0.738281 130.152344 0.96875 132.011719 1.242188 C 133.871094 1.519531 135.722656 1.839844 137.566406 2.207031 C 139.410156 2.574219 141.246094 2.984375 143.070312 3.441406 C 144.894531 3.898438 146.703125 4.402344 148.503906 4.945312 C 150.300781 5.492188 152.085938 6.082031 153.859375 6.714844 C 155.628906 7.347656 157.382812 8.023438 159.117188 8.746094 C 160.855469 9.464844 162.574219 10.226562 164.273438 11.03125 C 165.972656 11.832031 167.652344 12.679688 169.308594 13.566406 C 170.96875 14.449219 172.601562 15.378906 174.214844 16.34375 C 175.828125 17.3125 177.417969 18.316406 178.980469 19.359375 C 180.542969 20.40625 182.078125 21.488281 183.589844 22.605469 C 185.097656 23.726562 186.582031 24.882812 188.035156 26.078125 C 189.488281 27.269531 190.910156 28.496094 192.304688 29.757812 C 193.695312 31.023438 195.058594 32.316406 196.386719 33.648438 C 197.71875 34.976562 199.011719 36.339844 200.277344 37.730469 C 201.539062 39.125 202.765625 40.546875 203.957031 42 C 205.152344 43.453125 206.308594 44.9375 207.429688 46.445312 C 208.546875 47.957031 209.628906 49.492188 210.675781 51.054688 C 211.71875 52.617188 212.722656 54.207031 213.691406 55.820312 C 214.65625 57.433594 215.585938 59.066406 216.46875 60.726562 C 217.355469 62.382812 218.203125 64.0625 219.003906 65.761719 C 219.808594 67.460938 220.570312 69.179688 221.289062 70.917969 C 222.011719 72.652344 222.6875 74.40625 223.320312 76.175781 C 223.953125 77.949219 224.542969 79.734375 225.089844 81.53125 C 225.632812 83.332031 226.136719 85.140625 226.59375 86.964844 C 227.050781 88.789062 227.460938 90.625 227.828125 92.46875 C 228.195312 94.3125 228.515625 96.164062 228.792969 98.023438 C 229.066406 99.882812 229.296875 101.75 229.480469 103.621094 C 229.667969 105.492188 229.804688 107.363281 229.898438 109.242188 C 229.988281 111.121094 230.035156 113 230.035156 114.878906 Z M 230.035156 114.878906 " fill-opacity="1" fill-rule="nonzero"/></g><g clip-path="url(#25118a6ef0)"><path fill="#38b6ff" d="M 215.929688 114.953125 C 215.929688 116.601562 215.890625 118.246094 215.808594 119.894531 C 215.726562 121.539062 215.605469 123.183594 215.445312 124.824219 C 215.285156 126.464844 215.082031 128.097656 214.839844 129.726562 C 214.597656 131.359375 214.316406 132.980469 213.996094 134.597656 C 213.671875 136.214844 213.3125 137.820312 212.910156 139.421875 C 212.511719 141.019531 212.070312 142.605469 211.59375 144.183594 C 211.117188 145.761719 210.597656 147.324219 210.042969 148.878906 C 209.488281 150.429688 208.894531 151.964844 208.265625 153.488281 C 207.632812 155.011719 206.964844 156.519531 206.261719 158.007812 C 205.558594 159.496094 204.816406 160.96875 204.039062 162.421875 C 203.261719 163.875 202.449219 165.308594 201.601562 166.722656 C 200.753906 168.136719 199.875 169.527344 198.957031 170.898438 C 198.042969 172.269531 197.09375 173.617188 196.113281 174.941406 C 195.132812 176.261719 194.117188 177.5625 193.070312 178.835938 C 192.027344 180.109375 190.949219 181.359375 189.84375 182.578125 C 188.738281 183.800781 187.601562 184.992188 186.433594 186.160156 C 185.269531 187.324219 184.078125 188.460938 182.855469 189.566406 C 181.632812 190.671875 180.386719 191.75 179.113281 192.796875 C 177.839844 193.839844 176.539062 194.855469 175.214844 195.835938 C 173.894531 196.816406 172.546875 197.765625 171.175781 198.683594 C 169.804688 199.597656 168.414062 200.480469 167 201.328125 C 165.585938 202.171875 164.152344 202.984375 162.699219 203.761719 C 161.246094 204.539062 159.773438 205.28125 158.285156 205.984375 C 156.792969 206.691406 155.289062 207.355469 153.765625 207.988281 C 152.242188 208.617188 150.707031 209.210938 149.152344 209.765625 C 147.601562 210.320312 146.039062 210.839844 144.460938 211.316406 C 142.882812 211.796875 141.296875 212.234375 139.699219 212.636719 C 138.097656 213.035156 136.492188 213.398438 134.875 213.71875 C 133.257812 214.039062 131.636719 214.320312 130.003906 214.5625 C 128.375 214.804688 126.738281 215.007812 125.097656 215.167969 C 123.460938 215.328125 121.816406 215.449219 120.171875 215.53125 C 118.523438 215.613281 116.878906 215.652344 115.230469 215.652344 C 113.582031 215.652344 111.933594 215.613281 110.289062 215.53125 C 108.640625 215.449219 107 215.328125 105.359375 215.167969 C 103.71875 215.007812 102.082031 214.804688 100.453125 214.5625 C 98.824219 214.320312 97.199219 214.039062 95.582031 213.71875 C 93.96875 213.398438 92.359375 213.035156 90.761719 212.636719 C 89.164062 212.234375 87.574219 211.796875 85.996094 211.316406 C 84.421875 210.839844 82.855469 210.320312 81.304688 209.765625 C 79.753906 209.210938 78.214844 208.617188 76.691406 207.988281 C 75.171875 207.355469 73.664062 206.691406 72.175781 205.984375 C 70.683594 205.28125 69.210938 204.539062 67.757812 203.761719 C 66.304688 202.984375 64.871094 202.171875 63.457031 201.328125 C 62.046875 200.480469 60.652344 199.597656 59.28125 198.683594 C 57.914062 197.765625 56.566406 196.816406 55.242188 195.835938 C 53.917969 194.855469 52.621094 193.839844 51.34375 192.796875 C 50.070312 191.75 48.824219 190.671875 47.601562 189.566406 C 46.382812 188.460938 45.1875 187.324219 44.023438 186.160156 C 42.859375 184.992188 41.722656 183.800781 40.613281 182.578125 C 39.507812 181.359375 38.433594 180.109375 37.386719 178.835938 C 36.339844 177.5625 35.328125 176.261719 34.34375 174.941406 C 33.363281 173.617188 32.414062 172.269531 31.5 170.898438 C 30.582031 169.527344 29.703125 168.136719 28.855469 166.722656 C 28.007812 165.308594 27.195312 163.875 26.417969 162.421875 C 25.640625 160.96875 24.902344 159.496094 24.195312 158.007812 C 23.492188 156.519531 22.824219 155.011719 22.195312 153.488281 C 21.5625 151.964844 20.96875 150.429688 20.414062 148.878906 C 19.859375 147.324219 19.34375 145.761719 18.863281 144.183594 C 18.386719 142.605469 17.945312 141.019531 17.546875 139.421875 C 17.144531 137.820312 16.785156 136.214844 16.464844 134.597656 C 16.140625 132.980469 15.859375 131.359375 15.617188 129.726562 C 15.375 128.097656 15.175781 126.464844 15.011719 124.824219 C 14.851562 123.183594 14.730469 121.539062 14.648438 119.894531 C 14.570312 118.246094 14.527344 116.601562 14.527344 114.953125 C 14.527344 113.304688 14.570312 111.65625 14.648438 110.011719 C 14.730469 108.367188 14.851562 106.722656 15.011719 105.082031 C 15.175781 103.441406 15.375 101.808594 15.617188 100.175781 C 15.859375 98.546875 16.140625 96.921875 16.464844 95.308594 C 16.785156 93.691406 17.144531 92.082031 17.546875 90.484375 C 17.945312 88.886719 18.386719 87.296875 18.863281 85.722656 C 19.34375 84.144531 19.859375 82.578125 20.414062 81.027344 C 20.96875 79.476562 21.5625 77.9375 22.195312 76.417969 C 22.824219 74.894531 23.492188 73.386719 24.195312 71.898438 C 24.902344 70.40625 25.640625 68.9375 26.417969 67.484375 C 27.195312 66.027344 28.007812 64.59375 28.855469 63.183594 C 29.703125 61.769531 30.582031 60.375 31.5 59.007812 C 32.414062 57.636719 33.363281 56.289062 34.34375 54.964844 C 35.328125 53.640625 36.339844 52.34375 37.386719 51.070312 C 38.433594 49.792969 39.507812 48.546875 40.613281 47.328125 C 41.722656 46.105469 42.859375 44.910156 44.023438 43.746094 C 45.1875 42.582031 46.382812 41.445312 47.601562 40.339844 C 48.824219 39.230469 50.070312 38.15625 51.34375 37.109375 C 52.621094 36.0625 53.917969 35.050781 55.242188 34.070312 C 56.566406 33.085938 57.914062 32.136719 59.28125 31.222656 C 60.652344 30.308594 62.046875 29.425781 63.457031 28.578125 C 64.871094 27.730469 66.304688 26.917969 67.757812 26.140625 C 69.210938 25.367188 70.683594 24.625 72.175781 23.921875 C 73.664062 23.214844 75.171875 22.546875 76.691406 21.917969 C 78.214844 21.285156 79.753906 20.695312 81.304688 20.136719 C 82.855469 19.582031 84.421875 19.066406 85.996094 18.589844 C 87.574219 18.109375 89.164062 17.671875 90.761719 17.269531 C 92.359375 16.871094 93.96875 16.507812 95.582031 16.1875 C 97.199219 15.867188 98.824219 15.582031 100.453125 15.34375 C 102.082031 15.101562 103.71875 14.898438 105.359375 14.738281 C 107 14.574219 108.640625 14.453125 110.289062 14.375 C 111.933594 14.292969 113.582031 14.25 115.230469 14.25 C 116.878906 14.25 118.523438 14.292969 120.171875 14.375 C 121.816406 14.453125 123.460938 14.574219 125.097656 14.738281 C 126.738281 14.898438 128.375 15.101562 130.003906 15.34375 C 131.636719 15.582031 133.257812 15.867188 134.875 16.1875 C 136.492188 16.507812 138.097656 16.871094 139.699219 17.269531 C 141.296875 17.671875 142.882812 18.109375 144.460938 18.589844 C 146.039062 19.066406 147.601562 19.582031 149.152344 20.136719 C 150.707031 20.695312 152.242188 21.285156 153.765625 21.917969 C 155.289062 22.546875 156.792969 23.214844 158.285156 23.921875 C 159.773438 24.625 161.246094 25.367188 162.699219 26.140625 C 164.152344 26.917969 165.585938 27.730469 167 28.578125 C 168.414062 29.425781 169.804688 30.308594 171.175781 31.222656 C 172.546875 32.136719 173.894531 33.085938 175.214844 34.070312 C 176.539062 35.050781 177.839844 36.0625 179.113281 37.109375 C 180.386719 38.15625 181.632812 39.230469 182.855469 40.339844 C 184.078125 41.445312 185.269531 42.582031 186.433594 43.746094 C 187.601562 44.910156 188.738281 46.105469 189.84375 47.328125 C 190.949219 48.546875 192.027344 49.792969 193.070312 51.070312 C 194.117188 52.34375 195.132812 53.640625 196.113281 54.964844 C 197.09375 56.289062 198.042969 57.636719 198.957031 59.007812 C 199.875 60.375 200.753906 61.769531 201.601562 63.183594 C 202.449219 64.59375 203.261719 66.027344 204.039062 67.484375 C 204.816406 68.9375 205.558594 70.40625 206.261719 71.898438 C 206.964844 73.386719 207.632812 74.894531 208.265625 76.417969 C 208.894531 77.9375 209.488281 79.476562 210.042969 81.027344 C 210.597656 82.578125 211.117188 84.144531 211.59375 85.722656 C 212.070312 87.296875 212.511719 88.886719 212.910156 90.484375 C 213.3125 92.082031 213.671875 93.691406 213.996094 95.308594 C 214.316406 96.921875 214.597656 98.546875 214.839844 100.175781 C 215.082031 101.808594 215.285156 103.441406 215.445312 105.082031 C 215.605469 106.722656 215.726562 108.367188 215.808594 110.011719 C 215.890625 111.65625 215.929688 113.304688 215.929688 114.953125 Z M 215.929688 114.953125 " fill-opacity="1" fill-rule="nonzero"/></g><g clip-path="url(#1921b588ad)"><path fill="#ffffff" d="M 378.035156 119.414062 C 378.035156 121.292969 377.988281 123.171875 377.898438 125.050781 C 377.804688 126.929688 377.667969 128.804688 377.484375 130.675781 C 377.296875 132.546875 377.066406 134.410156 376.792969 136.269531 C 376.515625 138.128906 376.195312 139.980469 375.828125 141.824219 C 375.460938 143.667969 375.050781 145.503906 374.59375 147.328125 C 374.136719 149.152344 373.632812 150.960938 373.089844 152.761719 C 372.542969 154.5625 371.953125 156.34375 371.320312 158.117188 C 370.6875 159.886719 370.011719 161.640625 369.289062 163.375 C 368.570312 165.113281 367.808594 166.832031 367.007812 168.53125 C 366.203125 170.230469 365.355469 171.910156 364.472656 173.566406 C 363.585938 175.226562 362.65625 176.859375 361.691406 178.472656 C 360.726562 180.085938 359.71875 181.675781 358.675781 183.238281 C 357.628906 184.800781 356.546875 186.335938 355.429688 187.847656 C 354.308594 189.359375 353.152344 190.839844 351.960938 192.292969 C 350.765625 193.746094 349.539062 195.167969 348.277344 196.5625 C 347.015625 197.957031 345.71875 199.316406 344.386719 200.644531 C 343.058594 201.976562 341.699219 203.269531 340.304688 204.535156 C 338.910156 205.796875 337.488281 207.023438 336.035156 208.214844 C 334.582031 209.410156 333.101562 210.566406 331.589844 211.6875 C 330.078125 212.804688 328.542969 213.886719 326.980469 214.933594 C 325.417969 215.976562 323.828125 216.984375 322.214844 217.949219 C 320.601562 218.914062 318.96875 219.84375 317.308594 220.726562 C 315.652344 221.613281 313.972656 222.460938 312.273438 223.261719 C 310.574219 224.066406 308.855469 224.828125 307.117188 225.546875 C 305.382812 226.269531 303.628906 226.945312 301.859375 227.578125 C 300.085938 228.210938 298.304688 228.800781 296.503906 229.347656 C 294.703125 229.890625 292.894531 230.394531 291.070312 230.851562 C 289.246094 231.308594 287.410156 231.71875 285.566406 232.085938 C 283.722656 232.453125 281.871094 232.773438 280.011719 233.050781 C 278.152344 233.324219 276.289062 233.554688 274.417969 233.738281 C 272.546875 233.925781 270.671875 234.0625 268.792969 234.15625 C 266.914062 234.246094 265.035156 234.292969 263.15625 234.292969 C 261.277344 234.292969 259.398438 234.246094 257.519531 234.15625 C 255.640625 234.0625 253.765625 233.925781 251.894531 233.738281 C 250.023438 233.554688 248.160156 233.324219 246.300781 233.050781 C 244.441406 232.773438 242.589844 232.453125 240.746094 232.085938 C 238.902344 231.71875 237.066406 231.308594 235.242188 230.851562 C 233.417969 230.394531 231.609375 229.890625 229.808594 229.347656 C 228.007812 228.800781 226.226562 228.210938 224.453125 227.578125 C 222.683594 226.945312 220.929688 226.269531 219.195312 225.546875 C 217.457031 224.828125 215.738281 224.066406 214.039062 223.261719 C 212.339844 222.460938 210.660156 221.613281 209.003906 220.726562 C 207.34375 219.84375 205.710938 218.914062 204.097656 217.949219 C 202.484375 216.984375 200.894531 215.976562 199.332031 214.933594 C 197.769531 213.886719 196.234375 212.804688 194.722656 211.6875 C 193.210938 210.566406 191.730469 209.410156 190.277344 208.214844 C 188.824219 207.023438 187.402344 205.796875 186.007812 204.535156 C 184.613281 203.269531 183.253906 201.976562 181.925781 200.644531 C 180.59375 199.316406 179.300781 197.957031 178.035156 196.5625 C 176.773438 195.167969 175.546875 193.746094 174.351562 192.292969 C 173.160156 190.839844 172.003906 189.359375 170.882812 187.847656 C 169.765625 186.335938 168.683594 184.800781 167.636719 183.238281 C 166.59375 181.675781 165.585938 180.085938 164.621094 178.472656 C 163.65625 176.859375 162.726562 175.226562 161.839844 173.566406 C 160.957031 171.910156 160.109375 170.230469 159.304688 168.53125 C 158.503906 166.832031 157.742188 165.113281 157.023438 163.375 C 156.300781 161.640625 155.625 159.886719 154.992188 158.117188 C 154.359375 156.34375 153.769531 154.5625 153.222656 152.761719 C 152.679688 150.960938 152.175781 149.152344 151.71875 147.328125 C 151.261719 145.503906 150.851562 143.667969 150.484375 141.824219 C 150.117188 139.980469 149.796875 138.128906 149.519531 136.269531 C 149.246094 134.410156 149.015625 132.546875 148.832031 130.675781 C 148.644531 128.804688 148.507812 126.929688 148.414062 125.050781 C 148.324219 123.171875 148.277344 121.292969 148.277344 119.414062 C 148.277344 117.535156 148.324219 115.65625 148.414062 113.777344 C 148.507812 111.898438 148.644531 110.023438 148.832031 108.152344 C 149.015625 106.28125 149.246094 104.417969 149.519531 102.558594 C 149.796875 100.699219 150.117188 98.847656 150.484375 97.003906 C 150.851562 95.15625 151.261719 93.324219 151.71875 91.5 C 152.175781 89.675781 152.679688 87.867188 153.222656 86.066406 C 153.769531 84.265625 154.359375 82.480469 154.992188 80.710938 C 155.625 78.941406 156.300781 77.1875 157.023438 75.453125 C 157.742188 73.714844 158.503906 71.996094 159.304688 70.296875 C 160.109375 68.597656 160.957031 66.917969 161.839844 65.261719 C 162.726562 63.601562 163.65625 61.964844 164.621094 60.355469 C 165.585938 58.742188 166.59375 57.152344 167.636719 55.589844 C 168.683594 54.027344 169.765625 52.492188 170.882812 50.980469 C 172.003906 49.46875 173.160156 47.988281 174.351562 46.535156 C 175.546875 45.082031 176.773438 43.660156 178.035156 42.265625 C 179.300781 40.871094 180.59375 39.511719 181.925781 38.183594 C 183.253906 36.851562 184.613281 35.554688 186.007812 34.292969 C 187.402344 33.03125 188.824219 31.804688 190.277344 30.609375 C 191.730469 29.417969 193.210938 28.261719 194.722656 27.140625 C 196.234375 26.023438 197.769531 24.941406 199.332031 23.894531 C 200.894531 22.851562 202.484375 21.84375 204.097656 20.878906 C 205.710938 19.910156 207.34375 18.984375 209.003906 18.097656 C 210.660156 17.214844 212.339844 16.367188 214.039062 15.5625 C 215.738281 14.761719 217.457031 14 219.195312 13.277344 C 220.929688 12.558594 222.683594 11.882812 224.453125 11.25 C 226.226562 10.617188 228.007812 10.027344 229.808594 9.480469 C 231.609375 8.933594 233.417969 8.433594 235.242188 7.976562 C 237.066406 7.519531 238.902344 7.109375 240.746094 6.742188 C 242.589844 6.375 244.441406 6.054688 246.300781 5.777344 C 248.160156 5.503906 250.023438 5.273438 251.894531 5.085938 C 253.765625 4.902344 255.640625 4.765625 257.519531 4.671875 C 259.398438 4.582031 261.277344 4.535156 263.15625 4.535156 C 265.035156 4.535156 266.914062 4.582031 268.792969 4.671875 C 270.671875 4.765625 272.546875 4.902344 274.417969 5.085938 C 276.289062 5.273438 278.152344 5.503906 280.011719 5.777344 C 281.871094 6.054688 283.722656 6.375 285.566406 6.742188 C 287.410156 7.109375 289.246094 7.519531 291.070312 7.976562 C 292.894531 8.433594 294.703125 8.933594 296.503906 9.480469 C 298.304688 10.027344 300.085938 10.617188 301.859375 11.25 C 303.628906 11.882812 305.382812 12.558594 307.117188 13.277344 C 308.855469 14 310.574219 14.761719 312.273438 15.5625 C 313.972656 16.367188 315.652344 17.214844 317.308594 18.097656 C 318.96875 18.984375 320.601562 19.910156 322.214844 20.878906 C 323.828125 21.84375 325.417969 22.851562 326.980469 23.894531 C 328.542969 24.941406 330.078125 26.023438 331.589844 27.140625 C 333.101562 28.261719 334.582031 29.417969 336.035156 30.609375 C 337.488281 31.804688 338.910156 33.03125 340.304688 34.292969 C 341.699219 35.554688 343.058594 36.851562 344.386719 38.183594 C 345.71875 39.511719 347.015625 40.871094 348.277344 42.265625 C 349.539062 43.660156 350.765625 45.082031 351.960938 46.535156 C 353.152344 47.988281 354.308594 49.46875 355.429688 50.980469 C 356.546875 52.492188 357.628906 54.027344 358.675781 55.589844 C 359.71875 57.152344 360.726562 58.742188 361.691406 60.355469 C 362.65625 61.964844 363.585938 63.601562 364.472656 65.261719 C 365.355469 66.917969 366.203125 68.597656 367.007812 70.296875 C 367.808594 71.996094 368.570312 73.714844 369.289062 75.453125 C 370.011719 77.1875 370.6875 78.941406 371.320312 80.710938 C 371.953125 82.480469 372.542969 84.265625 373.089844 86.066406 C 373.632812 87.867188 374.136719 89.675781 374.59375 91.5 C 375.050781 93.324219 375.460938 95.15625 375.828125 97.003906 C 376.195312 98.847656 376.515625 100.699219 376.792969 102.558594 C 377.066406 104.417969 377.296875 106.28125 377.484375 108.152344 C 377.667969 110.023438 377.804688 111.898438 377.898438 113.777344 C 377.988281 115.65625 378.035156 117.535156 378.035156 119.414062 Z M 378.035156 119.414062 " fill-opacity="1" fill-rule="nonzero"/></g><g clip-path="url(#22932f4727)"><path fill="#59ff5b" d="M 363.929688 119.488281 C 363.929688 121.136719 363.890625 122.78125 363.808594 124.429688 C 363.726562 126.074219 363.605469 127.71875 363.445312 129.359375 C 363.285156 130.996094 363.082031 132.632812 362.839844 134.261719 C 362.597656 135.894531 362.316406 137.515625 361.996094 139.132812 C 361.671875 140.75 361.3125 142.355469 360.914062 143.957031 C 360.511719 145.554688 360.074219 147.140625 359.59375 148.71875 C 359.117188 150.296875 358.597656 151.859375 358.042969 153.414062 C 357.488281 154.964844 356.894531 156.5 356.265625 158.023438 C 355.632812 159.546875 354.964844 161.050781 354.261719 162.542969 C 353.558594 164.03125 352.816406 165.503906 352.039062 166.957031 C 351.261719 168.410156 350.449219 169.84375 349.601562 171.257812 C 348.757812 172.671875 347.875 174.0625 346.960938 175.433594 C 346.042969 176.804688 345.09375 178.152344 344.113281 179.472656 C 343.132812 180.796875 342.117188 182.097656 341.070312 183.371094 C 340.027344 184.644531 338.949219 185.890625 337.84375 187.113281 C 336.738281 188.335938 335.601562 189.527344 334.4375 190.691406 C 333.269531 191.859375 332.078125 192.996094 330.855469 194.101562 C 329.636719 195.207031 328.386719 196.285156 327.113281 197.328125 C 325.839844 198.375 324.539062 199.390625 323.21875 200.371094 C 321.894531 201.351562 320.546875 202.300781 319.175781 203.214844 C 317.804688 204.132812 316.414062 205.011719 315 205.859375 C 313.585938 206.707031 312.152344 207.519531 310.699219 208.296875 C 309.246094 209.074219 307.773438 209.816406 306.285156 210.519531 C 304.792969 211.222656 303.289062 211.890625 301.765625 212.523438 C 300.242188 213.152344 298.707031 213.746094 297.15625 214.300781 C 295.601562 214.855469 294.039062 215.375 292.460938 215.851562 C 290.882812 216.328125 289.296875 216.769531 287.699219 217.167969 C 286.097656 217.570312 284.492188 217.929688 282.875 218.253906 C 281.257812 218.574219 279.636719 218.855469 278.003906 219.097656 C 276.375 219.339844 274.738281 219.542969 273.101562 219.703125 C 271.460938 219.863281 269.816406 219.984375 268.171875 220.066406 C 266.523438 220.148438 264.878906 220.1875 263.230469 220.1875 C 261.582031 220.1875 259.933594 220.148438 258.289062 220.066406 C 256.640625 219.984375 255 219.863281 253.359375 219.703125 C 251.71875 219.542969 250.082031 219.339844 248.453125 219.097656 C 246.824219 218.855469 245.199219 218.574219 243.582031 218.253906 C 241.96875 217.929688 240.359375 217.570312 238.761719 217.167969 C 237.164062 216.769531 235.574219 216.328125 233.996094 215.851562 C 232.421875 215.375 230.855469 214.855469 229.304688 214.300781 C 227.753906 213.746094 226.214844 213.152344 224.691406 212.523438 C 223.171875 211.890625 221.664062 211.222656 220.175781 210.519531 C 218.683594 209.816406 217.214844 209.074219 215.757812 208.296875 C 214.304688 207.519531 212.871094 206.707031 211.460938 205.859375 C 210.046875 205.015625 208.652344 204.132812 207.285156 203.214844 C 205.914062 202.300781 204.566406 201.351562 203.242188 200.371094 C 201.917969 199.390625 200.621094 198.375 199.347656 197.328125 C 198.070312 196.285156 196.824219 195.207031 195.601562 194.101562 C 194.382812 192.996094 193.1875 191.859375 192.023438 190.691406 C 190.859375 189.527344 189.722656 188.335938 188.617188 187.113281 C 187.507812 185.890625 186.433594 184.644531 185.386719 183.371094 C 184.339844 182.097656 183.328125 180.796875 182.347656 179.472656 C 181.363281 178.152344 180.414062 176.804688 179.5 175.433594 C 178.585938 174.0625 177.703125 172.671875 176.855469 171.257812 C 176.007812 169.84375 175.195312 168.410156 174.417969 166.957031 C 173.644531 165.503906 172.902344 164.03125 172.195312 162.542969 C 171.492188 161.050781 170.824219 159.546875 170.195312 158.023438 C 169.5625 156.5 168.96875 154.964844 168.414062 153.414062 C 167.859375 151.859375 167.34375 150.296875 166.863281 148.71875 C 166.386719 147.140625 165.945312 145.554688 165.546875 143.957031 C 165.144531 142.355469 164.785156 140.75 164.464844 139.132812 C 164.140625 137.515625 163.859375 135.894531 163.617188 134.261719 C 163.378906 132.632812 163.175781 130.996094 163.015625 129.359375 C 162.851562 127.71875 162.730469 126.074219 162.648438 124.429688 C 162.570312 122.78125 162.527344 121.136719 162.527344 119.488281 C 162.527344 117.839844 162.570312 116.191406 162.648438 114.546875 C 162.730469 112.898438 162.851562 111.257812 163.015625 109.617188 C 163.175781 107.976562 163.378906 106.339844 163.617188 104.710938 C 163.859375 103.082031 164.140625 101.457031 164.464844 99.839844 C 164.785156 98.226562 165.144531 96.617188 165.546875 95.019531 C 165.945312 93.421875 166.386719 91.832031 166.863281 90.253906 C 167.34375 88.679688 167.859375 87.113281 168.414062 85.5625 C 168.96875 84.011719 169.5625 82.472656 170.195312 80.949219 C 170.824219 79.429688 171.492188 77.921875 172.195312 76.433594 C 172.902344 74.941406 173.644531 73.46875 174.417969 72.015625 C 175.195312 70.5625 176.007812 69.128906 176.855469 67.714844 C 177.703125 66.304688 178.585938 64.910156 179.5 63.539062 C 180.414062 62.171875 181.363281 60.824219 182.347656 59.5 C 183.328125 58.175781 184.339844 56.878906 185.386719 55.601562 C 186.433594 54.328125 187.507812 53.082031 188.617188 51.859375 C 189.722656 50.640625 190.859375 49.445312 192.023438 48.28125 C 193.1875 47.117188 194.382812 45.980469 195.601562 44.871094 C 196.824219 43.765625 198.070312 42.691406 199.347656 41.644531 C 200.621094 40.597656 201.917969 39.585938 203.242188 38.605469 C 204.566406 37.621094 205.914062 36.671875 207.285156 35.757812 C 208.652344 34.84375 210.046875 33.960938 211.460938 33.113281 C 212.871094 32.265625 214.304688 31.453125 215.757812 30.675781 C 217.214844 29.898438 218.683594 29.160156 220.175781 28.453125 C 221.664062 27.75 223.171875 27.082031 224.691406 26.453125 C 226.214844 25.820312 227.753906 25.226562 229.304688 24.671875 C 230.855469 24.117188 232.421875 23.601562 233.996094 23.121094 C 235.574219 22.644531 237.164062 22.203125 238.761719 21.804688 C 240.359375 21.402344 241.96875 21.042969 243.582031 20.722656 C 245.199219 20.398438 246.824219 20.117188 248.453125 19.875 C 250.082031 19.632812 251.71875 19.433594 253.359375 19.269531 C 255 19.109375 256.640625 18.988281 258.289062 18.90625 C 259.933594 18.828125 261.582031 18.785156 263.230469 18.785156 C 264.878906 18.785156 266.523438 18.828125 268.171875 18.90625 C 269.816406 18.988281 271.460938 19.109375 273.101562 19.269531 C 274.738281 19.433594 276.375 19.632812 278.003906 19.875 C 279.636719 20.117188 281.257812 20.398438 282.875 20.722656 C 284.492188 21.042969 286.097656 21.402344 287.699219 21.804688 C 289.296875 22.203125 290.882812 22.644531 292.460938 23.121094 C 294.039062 23.601562 295.601562 24.117188 297.15625 24.671875 C 298.707031 25.226562 300.242188 25.820312 301.765625 26.453125 C 303.289062 27.082031 304.792969 27.75 306.285156 28.453125 C 307.773438 29.160156 309.246094 29.898438 310.699219 30.675781 C 312.152344 31.453125 313.585938 32.265625 315 33.113281 C 316.414062 33.960938 317.804688 34.84375 319.175781 35.757812 C 320.546875 36.671875 321.894531 37.621094 323.21875 38.605469 C 324.539062 39.585938 325.839844 40.597656 327.113281 41.644531 C 328.386719 42.691406 329.636719 43.765625 330.855469 44.871094 C 332.078125 45.980469 333.269531 47.117188 334.4375 48.28125 C 335.601562 49.445312 336.738281 50.640625 337.84375 51.859375 C 338.949219 53.082031 340.027344 54.328125 341.070312 55.601562 C 342.117188 56.878906 343.132812 58.175781 344.113281 59.5 C 345.09375 60.824219 346.042969 62.171875 346.960938 63.539062 C 347.875 64.910156 348.757812 66.304688 349.601562 67.714844 C 350.449219 69.128906 351.261719 70.5625 352.039062 72.015625 C 352.816406 73.46875 353.558594 74.941406 354.261719 76.433594 C 354.964844 77.921875 355.632812 79.429688 356.265625 80.949219 C 356.894531 82.472656 357.488281 84.011719 358.042969 85.5625 C 358.597656 87.113281 359.117188 88.679688 359.59375 90.253906 C 360.074219 91.832031 360.511719 93.421875 360.914062 95.019531 C 361.3125 96.617188 361.671875 98.226562 361.996094 99.839844 C 362.316406 101.457031 362.597656 103.082031 362.839844 104.710938 C 363.082031 106.339844 363.285156 107.976562 363.445312 109.617188 C 363.605469 111.257812 363.726562 112.898438 363.808594 114.546875 C 363.890625 116.191406 363.929688 117.839844 363.929688 119.488281 Z M 363.929688 119.488281 " fill-opacity="1" fill-rule="nonzero"/></g></svg>