<svg xmlns="http://www.w3.org/2000/svg" xmlns:xlink="http://www.w3.org/1999/xlink" width="408" zoomAndPan="magnify" viewBox="0 0 306 305.999988" height="408" preserveAspectRatio="xMidYMid meet" version="1.0"><defs><clipPath id="a45560d050"><path d="M 0 0 L 305.253906 0 L 305.253906 305.253906 L 0 305.253906 Z M 0 0 " clip-rule="nonzero"/></clipPath><clipPath id="13c4b15286"><path d="M 152.628906 0 C 68.332031 0 0 68.332031 0 152.628906 C 0 236.921875 68.332031 305.253906 152.628906 305.253906 C 236.921875 305.253906 305.253906 236.921875 305.253906 152.628906 C 305.253906 68.332031 236.921875 0 152.628906 0 Z M 152.628906 0 " clip-rule="nonzero"/></clipPath><clipPath id="f2cd38bece"><path d="M 37.570312 95.199219 L 267.765625 95.199219 L 267.765625 244.101562 L 37.570312 244.101562 Z M 37.570312 95.199219 " clip-rule="nonzero"/></clipPath></defs><g clip-path="url(#a45560d050)"><g clip-path="url(#13c4b15286)"><path fill="#5f9ea0" d="M 0 0 L 305.253906 0 L 305.253906 305.253906 L 0 305.253906 Z M 0 0 " fill-opacity="1" fill-rule="nonzero"/></g></g><g clip-path="url(#f2cd38bece)"><path fill="#ffffff" d="M 161.382812 239.960938 L 265.097656 113.84375 C 272.902344 104.347656 262.148438 90.949219 251.191406 96.511719 L 157.765625 143.96875 C 154.539062 145.609375 150.722656 145.609375 147.488281 143.96875 L 54.039062 96.511719 C 43.082031 90.941406 32.335938 104.339844 40.144531 113.835938 L 143.855469 239.960938 C 148.394531 245.480469 156.84375 245.480469 161.382812 239.960938 " fill-opacity="1" fill-rule="nonzero"/></g></svg>