<svg xmlns="http://www.w3.org/2000/svg" xmlns:xlink="http://www.w3.org/1999/xlink" width="505" zoomAndPan="magnify" viewBox="0 0 378.75 235.499993" height="314" preserveAspectRatio="xMidYMid meet" version="1.0"><defs><clipPath id="86a19dcd56"><path d="M 0.277344 0 L 230.039062 0 L 230.039062 229.761719 L 0.277344 229.761719 Z M 0.277344 0 " clip-rule="nonzero"/></clipPath><clipPath id="e598134946"><path d="M 14.527344 14.25 L 215.851562 14.25 L 215.851562 215.574219 L 14.527344 215.574219 Z M 14.527344 14.25 " clip-rule="nonzero"/></clipPath><clipPath id="91846f3fe4"><path d="M 148.277344 4.535156 L 378.039062 4.535156 L 378.039062 234.296875 L 148.277344 234.296875 Z M 148.277344 4.535156 " clip-rule="nonzero"/></clipPath><clipPath id="f6cc6378fb"><path d="M 162.527344 18.785156 L 363.851562 18.785156 L 363.851562 220.109375 L 162.527344 220.109375 Z M 162.527344 18.785156 " clip-rule="nonzero"/></clipPath></defs><g clip-path="url(#86a19dcd56)"><path fill="#ffde59" d="M 230.175781 114.949219 C 230.175781 116.832031 230.128906 118.710938 230.035156 120.589844 C 229.945312 122.46875 229.804688 124.34375 229.621094 126.214844 C 229.4375 128.089844 229.207031 129.957031 228.929688 131.816406 C 228.65625 133.675781 228.332031 135.53125 227.96875 137.375 C 227.601562 139.21875 227.1875 141.054688 226.730469 142.878906 C 226.273438 144.703125 225.773438 146.515625 225.226562 148.316406 C 224.679688 150.117188 224.089844 151.902344 223.457031 153.675781 C 222.820312 155.445312 222.144531 157.199219 221.425781 158.9375 C 220.707031 160.675781 219.945312 162.394531 219.140625 164.097656 C 218.335938 165.796875 217.488281 167.476562 216.601562 169.136719 C 215.714844 170.796875 214.789062 172.433594 213.820312 174.046875 C 212.855469 175.660156 211.847656 177.246094 210.804688 178.8125 C 209.757812 180.375 208.675781 181.914062 207.554688 183.425781 C 206.433594 184.9375 205.277344 186.417969 204.082031 187.871094 C 202.890625 189.328125 201.660156 190.75 200.398438 192.144531 C 199.132812 193.539062 197.835938 194.902344 196.507812 196.230469 C 195.175781 197.5625 193.816406 198.859375 192.421875 200.121094 C 191.027344 201.386719 189.601562 202.613281 188.148438 203.808594 C 186.695312 205 185.210938 206.15625 183.703125 207.277344 C 182.191406 208.398438 180.652344 209.480469 179.089844 210.527344 C 177.523438 211.570312 175.933594 212.578125 174.320312 213.546875 C 172.707031 214.511719 171.070312 215.4375 169.414062 216.324219 C 167.753906 217.210938 166.074219 218.058594 164.375 218.863281 C 162.671875 219.667969 160.953125 220.429688 159.214844 221.148438 C 157.476562 221.867188 155.722656 222.546875 153.953125 223.179688 C 152.179688 223.8125 150.394531 224.402344 148.59375 224.949219 C 146.792969 225.496094 144.980469 225.996094 143.15625 226.453125 C 141.332031 226.910156 139.496094 227.324219 137.652344 227.691406 C 135.804688 228.058594 133.953125 228.378906 132.09375 228.65625 C 130.230469 228.929688 128.363281 229.160156 126.492188 229.34375 C 124.621094 229.53125 122.746094 229.667969 120.867188 229.761719 C 118.988281 229.851562 117.105469 229.898438 115.226562 229.898438 C 113.34375 229.898438 111.464844 229.851562 109.585938 229.761719 C 107.707031 229.667969 105.832031 229.53125 103.960938 229.34375 C 102.085938 229.160156 100.21875 228.929688 98.359375 228.65625 C 96.5 228.378906 94.644531 228.058594 92.800781 227.691406 C 90.957031 227.324219 89.121094 226.910156 87.296875 226.453125 C 85.46875 225.996094 83.65625 225.496094 81.859375 224.949219 C 80.058594 224.402344 78.273438 223.8125 76.5 223.179688 C 74.730469 222.546875 72.976562 221.867188 71.238281 221.148438 C 69.5 220.429688 67.78125 219.667969 66.078125 218.863281 C 64.378906 218.058594 62.699219 217.210938 61.039062 216.324219 C 59.378906 215.4375 57.742188 214.511719 56.128906 213.546875 C 54.515625 212.578125 52.925781 211.570312 51.363281 210.527344 C 49.800781 209.480469 48.261719 208.398438 46.75 207.277344 C 45.238281 206.15625 43.757812 205 42.304688 203.808594 C 40.847656 202.613281 39.425781 201.386719 38.03125 200.121094 C 36.636719 198.859375 35.273438 197.5625 33.945312 196.230469 C 32.613281 194.902344 31.316406 193.539062 30.054688 192.144531 C 28.789062 190.75 27.5625 189.328125 26.367188 187.871094 C 25.175781 186.417969 24.019531 184.9375 22.898438 183.425781 C 21.777344 181.914062 20.695312 180.375 19.648438 178.8125 C 18.605469 177.246094 17.597656 175.660156 16.628906 174.046875 C 15.664062 172.433594 14.738281 170.796875 13.847656 169.136719 C 12.960938 167.476562 12.117188 165.796875 11.3125 164.097656 C 10.507812 162.394531 9.746094 160.675781 9.027344 158.9375 C 8.304688 157.199219 7.628906 155.445312 6.996094 153.675781 C 6.363281 151.902344 5.773438 150.117188 5.226562 148.316406 C 4.679688 146.515625 4.179688 144.703125 3.722656 142.878906 C 3.265625 141.054688 2.851562 139.21875 2.484375 137.375 C 2.117188 135.53125 1.796875 133.675781 1.519531 131.816406 C 1.246094 129.957031 1.015625 128.089844 0.828125 126.214844 C 0.644531 124.34375 0.507812 122.46875 0.414062 120.589844 C 0.324219 118.710938 0.277344 116.832031 0.277344 114.949219 C 0.277344 113.066406 0.324219 111.1875 0.414062 109.308594 C 0.507812 107.429688 0.644531 105.554688 0.828125 103.683594 C 1.015625 101.808594 1.246094 99.945312 1.519531 98.082031 C 1.796875 96.222656 2.117188 94.367188 2.484375 92.523438 C 2.851562 90.679688 3.265625 88.84375 3.722656 87.019531 C 4.179688 85.195312 4.679688 83.382812 5.226562 81.582031 C 5.773438 79.78125 6.363281 77.996094 6.996094 76.222656 C 7.628906 74.453125 8.304688 72.699219 9.027344 70.960938 C 9.746094 69.222656 10.507812 67.503906 11.3125 65.800781 C 12.117188 64.101562 12.960938 62.421875 13.847656 60.761719 C 14.738281 59.105469 15.664062 57.46875 16.628906 55.855469 C 17.597656 54.238281 18.605469 52.652344 19.648438 51.085938 C 20.695312 49.523438 21.777344 47.984375 22.898438 46.472656 C 24.019531 44.964844 25.175781 43.480469 26.367188 42.027344 C 27.5625 40.570312 28.789062 39.148438 30.054688 37.753906 C 31.316406 36.359375 32.613281 35 33.945312 33.667969 C 35.273438 32.335938 36.636719 31.039062 38.03125 29.777344 C 39.425781 28.515625 40.847656 27.285156 42.304688 26.09375 C 43.757812 24.898438 45.238281 23.742188 46.75 22.621094 C 48.261719 21.5 49.800781 20.417969 51.363281 19.371094 C 52.925781 18.328125 54.515625 17.320312 56.128906 16.355469 C 57.742188 15.386719 59.378906 14.460938 61.039062 13.574219 C 62.699219 12.6875 64.378906 11.839844 66.078125 11.035156 C 67.78125 10.230469 69.5 9.46875 71.238281 8.75 C 72.976562 8.03125 74.730469 7.351562 76.5 6.71875 C 78.273438 6.085938 80.058594 5.496094 81.859375 4.949219 C 83.65625 4.402344 85.46875 3.902344 87.296875 3.445312 C 89.121094 2.988281 90.957031 2.574219 92.800781 2.207031 C 94.644531 1.839844 96.5 1.519531 98.359375 1.246094 C 100.21875 0.96875 102.085938 0.738281 103.960938 0.554688 C 105.832031 0.367188 107.707031 0.230469 109.585938 0.136719 C 111.464844 0.046875 113.34375 0 115.226562 0 C 117.105469 0 118.988281 0.046875 120.867188 0.136719 C 122.746094 0.230469 124.621094 0.367188 126.492188 0.554688 C 128.363281 0.738281 130.230469 0.96875 132.09375 1.246094 C 133.953125 1.519531 135.804688 1.839844 137.652344 2.207031 C 139.496094 2.574219 141.332031 2.988281 143.15625 3.445312 C 144.980469 3.902344 146.792969 4.402344 148.59375 4.949219 C 150.394531 5.496094 152.179688 6.085938 153.953125 6.71875 C 155.722656 7.351562 157.476562 8.03125 159.214844 8.75 C 160.953125 9.46875 162.671875 10.230469 164.375 11.035156 C 166.074219 11.839844 167.753906 12.6875 169.414062 13.574219 C 171.070312 14.460938 172.707031 15.386719 174.320312 16.355469 C 175.933594 17.320312 177.523438 18.328125 179.089844 19.371094 C 180.652344 20.417969 182.191406 21.5 183.703125 22.621094 C 185.210938 23.742188 186.695312 24.898438 188.148438 26.09375 C 189.601562 27.285156 191.027344 28.515625 192.421875 29.777344 C 193.816406 31.039062 195.175781 32.335938 196.507812 33.667969 C 197.835938 35 199.132812 36.359375 200.398438 37.753906 C 201.660156 39.148438 202.890625 40.570312 204.082031 42.027344 C 205.277344 43.480469 206.433594 44.964844 207.554688 46.472656 C 208.675781 47.984375 209.757812 49.523438 210.804688 51.085938 C 211.847656 52.652344 212.855469 54.238281 213.820312 55.855469 C 214.789062 57.46875 215.714844 59.105469 216.601562 60.761719 C 217.488281 62.421875 218.335938 64.101562 219.140625 65.800781 C 219.945312 67.503906 220.707031 69.222656 221.425781 70.960938 C 222.144531 72.699219 222.820312 74.453125 223.457031 76.222656 C 224.089844 77.996094 224.679688 79.78125 225.226562 81.582031 C 225.773438 83.382812 226.273438 85.195312 226.730469 87.019531 C 227.1875 88.84375 227.601562 90.679688 227.96875 92.523438 C 228.332031 94.367188 228.65625 96.222656 228.929688 98.082031 C 229.207031 99.945312 229.4375 101.808594 229.621094 103.683594 C 229.804688 105.554688 229.945312 107.429688 230.035156 109.308594 C 230.128906 111.1875 230.175781 113.066406 230.175781 114.949219 Z M 230.175781 114.949219 " fill-opacity="1" fill-rule="nonzero"/></g><g clip-path="url(#e598134946)"><path fill="#100f10" d="M 215.929688 114.953125 C 215.929688 116.601562 215.890625 118.246094 215.808594 119.894531 C 215.726562 121.539062 215.605469 123.183594 215.445312 124.824219 C 215.285156 126.464844 215.082031 128.097656 214.839844 129.726562 C 214.597656 131.359375 214.316406 132.980469 213.996094 134.597656 C 213.671875 136.214844 213.3125 137.820312 212.910156 139.421875 C 212.511719 141.019531 212.070312 142.605469 211.59375 144.183594 C 211.117188 145.761719 210.597656 147.324219 210.042969 148.878906 C 209.488281 150.429688 208.894531 151.964844 208.265625 153.488281 C 207.632812 155.011719 206.964844 156.519531 206.261719 158.007812 C 205.558594 159.496094 204.816406 160.96875 204.039062 162.421875 C 203.261719 163.875 202.449219 165.308594 201.601562 166.722656 C 200.753906 168.136719 199.875 169.527344 198.957031 170.898438 C 198.042969 172.269531 197.09375 173.617188 196.113281 174.941406 C 195.132812 176.261719 194.117188 177.5625 193.070312 178.835938 C 192.027344 180.109375 190.949219 181.359375 189.84375 182.578125 C 188.738281 183.800781 187.601562 184.992188 186.433594 186.160156 C 185.269531 187.324219 184.078125 188.460938 182.855469 189.566406 C 181.632812 190.671875 180.386719 191.75 179.113281 192.796875 C 177.839844 193.839844 176.539062 194.855469 175.214844 195.835938 C 173.894531 196.816406 172.546875 197.765625 171.175781 198.683594 C 169.804688 199.597656 168.414062 200.480469 167 201.328125 C 165.585938 202.171875 164.152344 202.984375 162.699219 203.761719 C 161.246094 204.539062 159.773438 205.28125 158.285156 205.984375 C 156.792969 206.691406 155.289062 207.355469 153.765625 207.988281 C 152.242188 208.617188 150.707031 209.210938 149.152344 209.765625 C 147.601562 210.320312 146.039062 210.839844 144.460938 211.316406 C 142.882812 211.796875 141.296875 212.234375 139.699219 212.636719 C 138.097656 213.035156 136.492188 213.398438 134.875 213.71875 C 133.257812 214.039062 131.636719 214.320312 130.003906 214.5625 C 128.375 214.804688 126.738281 215.007812 125.097656 215.167969 C 123.460938 215.328125 121.816406 215.449219 120.171875 215.53125 C 118.523438 215.613281 116.878906 215.652344 115.230469 215.652344 C 113.582031 215.652344 111.933594 215.613281 110.289062 215.53125 C 108.640625 215.449219 107 215.328125 105.359375 215.167969 C 103.71875 215.007812 102.082031 214.804688 100.453125 214.5625 C 98.824219 214.320312 97.199219 214.039062 95.582031 213.71875 C 93.96875 213.398438 92.359375 213.035156 90.761719 212.636719 C 89.164062 212.234375 87.574219 211.796875 85.996094 211.316406 C 84.421875 210.839844 82.855469 210.320312 81.304688 209.765625 C 79.753906 209.210938 78.214844 208.617188 76.691406 207.988281 C 75.171875 207.355469 73.664062 206.691406 72.175781 205.984375 C 70.683594 205.28125 69.210938 204.539062 67.757812 203.761719 C 66.304688 202.984375 64.871094 202.171875 63.457031 201.328125 C 62.046875 200.480469 60.652344 199.597656 59.28125 198.683594 C 57.914062 197.765625 56.566406 196.816406 55.242188 195.835938 C 53.917969 194.855469 52.621094 193.839844 51.34375 192.796875 C 50.070312 191.75 48.824219 190.671875 47.601562 189.566406 C 46.382812 188.460938 45.1875 187.324219 44.023438 186.160156 C 42.859375 184.992188 41.722656 183.800781 40.613281 182.578125 C 39.507812 181.359375 38.433594 180.109375 37.386719 178.835938 C 36.339844 177.5625 35.328125 176.261719 34.34375 174.941406 C 33.363281 173.617188 32.414062 172.269531 31.5 170.898438 C 30.582031 169.527344 29.703125 168.136719 28.855469 166.722656 C 28.007812 165.308594 27.195312 163.875 26.417969 162.421875 C 25.640625 160.96875 24.902344 159.496094 24.195312 158.007812 C 23.492188 156.519531 22.824219 155.011719 22.195312 153.488281 C 21.5625 151.964844 20.96875 150.429688 20.414062 148.878906 C 19.859375 147.324219 19.34375 145.761719 18.863281 144.183594 C 18.386719 142.605469 17.945312 141.019531 17.546875 139.421875 C 17.144531 137.820312 16.785156 136.214844 16.464844 134.597656 C 16.140625 132.980469 15.859375 131.359375 15.617188 129.726562 C 15.375 128.097656 15.175781 126.464844 15.011719 124.824219 C 14.851562 123.183594 14.730469 121.539062 14.648438 119.894531 C 14.570312 118.246094 14.527344 116.601562 14.527344 114.953125 C 14.527344 113.304688 14.570312 111.65625 14.648438 110.011719 C 14.730469 108.367188 14.851562 106.722656 15.011719 105.082031 C 15.175781 103.441406 15.375 101.808594 15.617188 100.175781 C 15.859375 98.546875 16.140625 96.921875 16.464844 95.308594 C 16.785156 93.691406 17.144531 92.082031 17.546875 90.484375 C 17.945312 88.886719 18.386719 87.296875 18.863281 85.722656 C 19.34375 84.144531 19.859375 82.578125 20.414062 81.027344 C 20.96875 79.476562 21.5625 77.9375 22.195312 76.417969 C 22.824219 74.894531 23.492188 73.386719 24.195312 71.898438 C 24.902344 70.40625 25.640625 68.9375 26.417969 67.484375 C 27.195312 66.027344 28.007812 64.59375 28.855469 63.183594 C 29.703125 61.769531 30.582031 60.375 31.5 59.007812 C 32.414062 57.636719 33.363281 56.289062 34.34375 54.964844 C 35.328125 53.640625 36.339844 52.34375 37.386719 51.070312 C 38.433594 49.792969 39.507812 48.546875 40.613281 47.328125 C 41.722656 46.105469 42.859375 44.910156 44.023438 43.746094 C 45.1875 42.582031 46.382812 41.445312 47.601562 40.339844 C 48.824219 39.230469 50.070312 38.15625 51.34375 37.109375 C 52.621094 36.0625 53.917969 35.050781 55.242188 34.070312 C 56.566406 33.085938 57.914062 32.136719 59.28125 31.222656 C 60.652344 30.308594 62.046875 29.425781 63.457031 28.578125 C 64.871094 27.730469 66.304688 26.917969 67.757812 26.140625 C 69.210938 25.367188 70.683594 24.625 72.175781 23.921875 C 73.664062 23.214844 75.171875 22.546875 76.691406 21.917969 C 78.214844 21.285156 79.753906 20.695312 81.304688 20.136719 C 82.855469 19.582031 84.421875 19.066406 85.996094 18.589844 C 87.574219 18.109375 89.164062 17.671875 90.761719 17.269531 C 92.359375 16.871094 93.96875 16.507812 95.582031 16.1875 C 97.199219 15.867188 98.824219 15.582031 100.453125 15.34375 C 102.082031 15.101562 103.71875 14.898438 105.359375 14.738281 C 107 14.574219 108.640625 14.453125 110.289062 14.375 C 111.933594 14.292969 113.582031 14.25 115.230469 14.25 C 116.878906 14.25 118.523438 14.292969 120.171875 14.375 C 121.816406 14.453125 123.460938 14.574219 125.097656 14.738281 C 126.738281 14.898438 128.375 15.101562 130.003906 15.34375 C 131.636719 15.582031 133.257812 15.867188 134.875 16.1875 C 136.492188 16.507812 138.097656 16.871094 139.699219 17.269531 C 141.296875 17.671875 142.882812 18.109375 144.460938 18.589844 C 146.039062 19.066406 147.601562 19.582031 149.152344 20.136719 C 150.707031 20.695312 152.242188 21.285156 153.765625 21.917969 C 155.289062 22.546875 156.792969 23.214844 158.285156 23.921875 C 159.773438 24.625 161.246094 25.367188 162.699219 26.140625 C 164.152344 26.917969 165.585938 27.730469 167 28.578125 C 168.414062 29.425781 169.804688 30.308594 171.175781 31.222656 C 172.546875 32.136719 173.894531 33.085938 175.214844 34.070312 C 176.539062 35.050781 177.839844 36.0625 179.113281 37.109375 C 180.386719 38.15625 181.632812 39.230469 182.855469 40.339844 C 184.078125 41.445312 185.269531 42.582031 186.433594 43.746094 C 187.601562 44.910156 188.738281 46.105469 189.84375 47.328125 C 190.949219 48.546875 192.027344 49.792969 193.070312 51.070312 C 194.117188 52.34375 195.132812 53.640625 196.113281 54.964844 C 197.09375 56.289062 198.042969 57.636719 198.957031 59.007812 C 199.875 60.375 200.753906 61.769531 201.601562 63.183594 C 202.449219 64.59375 203.261719 66.027344 204.039062 67.484375 C 204.816406 68.9375 205.558594 70.40625 206.261719 71.898438 C 206.964844 73.386719 207.632812 74.894531 208.265625 76.417969 C 208.894531 77.9375 209.488281 79.476562 210.042969 81.027344 C 210.597656 82.578125 211.117188 84.144531 211.59375 85.722656 C 212.070312 87.296875 212.511719 88.886719 212.910156 90.484375 C 213.3125 92.082031 213.671875 93.691406 213.996094 95.308594 C 214.316406 96.921875 214.597656 98.546875 214.839844 100.175781 C 215.082031 101.808594 215.285156 103.441406 215.445312 105.082031 C 215.605469 106.722656 215.726562 108.367188 215.808594 110.011719 C 215.890625 111.65625 215.929688 113.304688 215.929688 114.953125 Z M 215.929688 114.953125 " fill-opacity="1" fill-rule="nonzero"/></g><g clip-path="url(#91846f3fe4)"><path fill="#ffde59" d="M 378.175781 119.484375 C 378.175781 121.363281 378.128906 123.246094 378.039062 125.125 C 377.945312 127.003906 377.808594 128.878906 377.621094 130.75 C 377.4375 132.625 377.207031 134.488281 376.933594 136.351562 C 376.65625 138.210938 376.335938 140.0625 375.96875 141.910156 C 375.601562 143.753906 375.1875 145.589844 374.730469 147.414062 C 374.273438 149.238281 373.773438 151.050781 373.226562 152.851562 C 372.679688 154.652344 372.089844 156.4375 371.457031 158.210938 C 370.824219 159.980469 370.144531 161.734375 369.425781 163.472656 C 368.707031 165.210938 367.945312 166.929688 367.140625 168.632812 C 366.335938 170.332031 365.488281 172.011719 364.601562 173.671875 C 363.714844 175.328125 362.789062 176.964844 361.820312 178.578125 C 360.855469 180.195312 359.847656 181.78125 358.804688 183.347656 C 357.757812 184.910156 356.675781 186.449219 355.554688 187.960938 C 354.433594 189.46875 353.277344 190.953125 352.082031 192.40625 C 350.890625 193.863281 349.660156 195.285156 348.398438 196.679688 C 347.136719 198.074219 345.839844 199.433594 344.507812 200.765625 C 343.179688 202.097656 341.816406 203.394531 340.421875 204.65625 C 339.027344 205.917969 337.605469 207.148438 336.148438 208.339844 C 334.695312 209.535156 333.210938 210.691406 331.703125 211.8125 C 330.191406 212.933594 328.652344 214.015625 327.089844 215.0625 C 325.523438 216.105469 323.9375 217.113281 322.324219 218.078125 C 320.707031 219.046875 319.074219 219.972656 317.414062 220.859375 C 315.753906 221.746094 314.074219 222.59375 312.375 223.398438 C 310.671875 224.203125 308.953125 224.964844 307.214844 225.683594 C 305.476562 226.402344 303.722656 227.082031 301.953125 227.714844 C 300.179688 228.347656 298.394531 228.9375 296.59375 229.484375 C 294.792969 230.03125 292.980469 230.53125 291.15625 230.988281 C 289.332031 231.445312 287.496094 231.859375 285.652344 232.226562 C 283.808594 232.589844 281.953125 232.914062 280.09375 233.1875 C 278.230469 233.464844 276.367188 233.695312 274.492188 233.878906 C 272.621094 234.0625 270.746094 234.203125 268.867188 234.296875 C 266.988281 234.386719 265.109375 234.433594 263.226562 234.433594 C 261.34375 234.433594 259.464844 234.386719 257.585938 234.296875 C 255.707031 234.203125 253.832031 234.0625 251.960938 233.878906 C 250.085938 233.695312 248.222656 233.464844 246.359375 233.1875 C 244.5 232.914062 242.644531 232.589844 240.800781 232.226562 C 238.957031 231.859375 237.121094 231.445312 235.296875 230.988281 C 233.472656 230.53125 231.660156 230.03125 229.859375 229.484375 C 228.058594 228.9375 226.273438 228.347656 224.5 227.714844 C 222.730469 227.082031 220.976562 226.402344 219.238281 225.683594 C 217.5 224.964844 215.78125 224.203125 214.078125 223.398438 C 212.378906 222.59375 210.699219 221.746094 209.039062 220.859375 C 207.378906 219.972656 205.746094 219.046875 204.128906 218.078125 C 202.515625 217.113281 200.929688 216.105469 199.363281 215.0625 C 197.800781 214.015625 196.261719 212.933594 194.75 211.8125 C 193.238281 210.691406 191.757812 209.535156 190.304688 208.339844 C 188.847656 207.148438 187.425781 205.917969 186.03125 204.65625 C 184.636719 203.394531 183.273438 202.097656 181.945312 200.765625 C 180.613281 199.433594 179.316406 198.074219 178.054688 196.679688 C 176.792969 195.285156 175.5625 193.863281 174.371094 192.40625 C 173.175781 190.953125 172.019531 189.46875 170.898438 187.960938 C 169.777344 186.449219 168.695312 184.910156 167.648438 183.347656 C 166.605469 181.78125 165.597656 180.195312 164.632812 178.578125 C 163.664062 176.964844 162.738281 175.328125 161.851562 173.671875 C 160.964844 172.011719 160.117188 170.332031 159.3125 168.632812 C 158.507812 166.929688 157.746094 165.210938 157.027344 163.472656 C 156.308594 161.734375 155.628906 159.980469 154.996094 158.210938 C 154.363281 156.4375 153.773438 154.652344 153.226562 152.851562 C 152.679688 151.050781 152.179688 149.238281 151.722656 147.414062 C 151.265625 145.589844 150.851562 143.753906 150.484375 141.910156 C 150.117188 140.0625 149.796875 138.210938 149.519531 136.351562 C 149.246094 134.488281 149.015625 132.625 148.832031 130.75 C 148.644531 128.878906 148.507812 127.003906 148.414062 125.125 C 148.324219 123.246094 148.277344 121.363281 148.277344 119.484375 C 148.277344 117.601562 148.324219 115.722656 148.414062 113.84375 C 148.507812 111.964844 148.644531 110.089844 148.832031 108.21875 C 149.015625 106.34375 149.246094 104.476562 149.519531 102.617188 C 149.796875 100.757812 150.117188 98.902344 150.484375 97.058594 C 150.851562 95.214844 151.265625 93.378906 151.722656 91.554688 C 152.179688 89.730469 152.679688 87.917969 153.226562 86.117188 C 153.773438 84.316406 154.363281 82.53125 154.996094 80.757812 C 155.628906 78.988281 156.308594 77.234375 157.027344 75.496094 C 157.746094 73.757812 158.507812 72.039062 159.3125 70.335938 C 160.117188 68.636719 160.964844 66.957031 161.851562 65.296875 C 162.738281 63.636719 163.664062 62 164.632812 60.386719 C 165.597656 58.773438 166.605469 57.1875 167.648438 55.621094 C 168.695312 54.058594 169.777344 52.519531 170.898438 51.007812 C 172.019531 49.496094 173.175781 48.015625 174.371094 46.5625 C 175.5625 45.105469 176.792969 43.683594 178.054688 42.289062 C 179.316406 40.894531 180.613281 39.53125 181.945312 38.203125 C 183.273438 36.871094 184.636719 35.574219 186.03125 34.3125 C 187.425781 33.046875 188.847656 31.820312 190.304688 30.625 C 191.757812 29.433594 193.238281 28.277344 194.75 27.15625 C 196.261719 26.035156 197.800781 24.953125 199.363281 23.90625 C 200.929688 22.863281 202.515625 21.855469 204.128906 20.886719 C 205.746094 19.921875 207.378906 18.996094 209.039062 18.109375 C 210.699219 17.222656 212.378906 16.375 214.078125 15.570312 C 215.78125 14.765625 217.5 14.003906 219.238281 13.285156 C 220.976562 12.566406 222.730469 11.886719 224.5 11.253906 C 226.273438 10.621094 228.058594 10.03125 229.859375 9.484375 C 231.660156 8.9375 233.472656 8.4375 235.296875 7.980469 C 237.121094 7.523438 238.957031 7.109375 240.800781 6.742188 C 242.644531 6.375 244.5 6.054688 246.359375 5.777344 C 248.222656 5.503906 250.085938 5.273438 251.960938 5.089844 C 253.832031 4.902344 255.707031 4.765625 257.585938 4.671875 C 259.464844 4.582031 261.34375 4.535156 263.226562 4.535156 C 265.109375 4.535156 266.988281 4.582031 268.867188 4.671875 C 270.746094 4.765625 272.621094 4.902344 274.492188 5.089844 C 276.367188 5.273438 278.230469 5.503906 280.09375 5.777344 C 281.953125 6.054688 283.808594 6.375 285.652344 6.742188 C 287.496094 7.109375 289.332031 7.523438 291.15625 7.980469 C 292.980469 8.4375 294.792969 8.9375 296.59375 9.484375 C 298.394531 10.03125 300.179688 10.621094 301.953125 11.253906 C 303.722656 11.886719 305.476562 12.566406 307.214844 13.285156 C 308.953125 14.003906 310.671875 14.765625 312.375 15.570312 C 314.074219 16.375 315.753906 17.222656 317.414062 18.109375 C 319.074219 18.996094 320.707031 19.921875 322.324219 20.886719 C 323.9375 21.855469 325.523438 22.863281 327.089844 23.90625 C 328.652344 24.953125 330.191406 26.035156 331.703125 27.15625 C 333.210938 28.277344 334.695312 29.433594 336.148438 30.625 C 337.605469 31.820312 339.027344 33.046875 340.421875 34.3125 C 341.816406 35.574219 343.179688 36.871094 344.507812 38.203125 C 345.839844 39.53125 347.136719 40.894531 348.398438 42.289062 C 349.660156 43.683594 350.890625 45.105469 352.082031 46.5625 C 353.277344 48.015625 354.433594 49.496094 355.554688 51.007812 C 356.675781 52.519531 357.757812 54.058594 358.804688 55.621094 C 359.847656 57.1875 360.855469 58.773438 361.820312 60.386719 C 362.789062 62 363.714844 63.636719 364.601562 65.296875 C 365.488281 66.957031 366.335938 68.636719 367.140625 70.335938 C 367.945312 72.039062 368.707031 73.757812 369.425781 75.496094 C 370.144531 77.234375 370.824219 78.988281 371.457031 80.757812 C 372.089844 82.53125 372.679688 84.316406 373.226562 86.117188 C 373.773438 87.917969 374.273438 89.730469 374.730469 91.554688 C 375.1875 93.378906 375.601562 95.214844 375.96875 97.058594 C 376.335938 98.902344 376.65625 100.757812 376.933594 102.617188 C 377.207031 104.476562 377.4375 106.34375 377.621094 108.21875 C 377.808594 110.089844 377.945312 111.964844 378.039062 113.84375 C 378.128906 115.722656 378.175781 117.601562 378.175781 119.484375 Z M 378.175781 119.484375 " fill-opacity="1" fill-rule="nonzero"/></g><g clip-path="url(#f6cc6378fb)"><path fill="#ffffff" d="M 363.847656 119.445312 C 363.847656 121.09375 363.808594 122.738281 363.726562 124.386719 C 363.644531 126.03125 363.523438 127.671875 363.363281 129.3125 C 363.203125 130.953125 363 132.585938 362.757812 134.214844 C 362.515625 135.84375 362.234375 137.46875 361.914062 139.082031 C 361.59375 140.699219 361.230469 142.304688 360.832031 143.90625 C 360.429688 145.503906 359.992188 147.089844 359.515625 148.667969 C 359.035156 150.242188 358.519531 151.804688 357.964844 153.355469 C 357.410156 154.910156 356.816406 156.445312 356.1875 157.96875 C 355.554688 159.488281 354.886719 160.996094 354.183594 162.484375 C 353.480469 163.972656 352.738281 165.445312 351.960938 166.898438 C 351.1875 168.351562 350.375 169.78125 349.527344 171.195312 C 348.679688 172.609375 347.800781 174 346.882812 175.371094 C 345.96875 176.738281 345.019531 178.085938 344.039062 179.410156 C 343.058594 180.730469 342.042969 182.03125 341 183.304688 C 339.953125 184.578125 338.878906 185.824219 337.773438 187.046875 C 336.667969 188.265625 335.53125 189.457031 334.367188 190.625 C 333.199219 191.789062 332.007812 192.921875 330.789062 194.03125 C 329.566406 195.136719 328.320312 196.210938 327.046875 197.257812 C 325.773438 198.300781 324.476562 199.316406 323.152344 200.296875 C 321.828125 201.277344 320.480469 202.226562 319.113281 203.140625 C 317.742188 204.058594 316.351562 204.9375 314.9375 205.785156 C 313.523438 206.632812 312.09375 207.445312 310.640625 208.21875 C 309.1875 208.996094 307.714844 209.738281 306.226562 210.441406 C 304.738281 211.144531 303.230469 211.8125 301.710938 212.445312 C 300.1875 213.074219 298.652344 213.667969 297.101562 214.222656 C 295.546875 214.777344 293.984375 215.292969 292.410156 215.773438 C 290.832031 216.25 289.246094 216.6875 287.648438 217.089844 C 286.050781 217.488281 284.441406 217.851562 282.828125 218.171875 C 281.210938 218.492188 279.589844 218.773438 277.957031 219.015625 C 276.328125 219.257812 274.695312 219.460938 273.054688 219.621094 C 271.414062 219.78125 269.773438 219.902344 268.128906 219.984375 C 266.480469 220.066406 264.835938 220.105469 263.1875 220.105469 C 261.542969 220.105469 259.894531 220.066406 258.25 219.984375 C 256.605469 219.902344 254.960938 219.78125 253.320312 219.621094 C 251.683594 219.460938 250.046875 219.257812 248.417969 219.015625 C 246.789062 218.773438 245.167969 218.492188 243.550781 218.171875 C 241.933594 217.851562 240.328125 217.488281 238.730469 217.089844 C 237.132812 216.6875 235.546875 216.25 233.96875 215.773438 C 232.390625 215.292969 230.828125 214.777344 229.277344 214.222656 C 227.726562 213.667969 226.191406 213.074219 224.667969 212.445312 C 223.144531 211.8125 221.640625 211.144531 220.152344 210.441406 C 218.660156 209.738281 217.191406 208.996094 215.738281 208.21875 C 214.285156 207.445312 212.851562 206.632812 211.4375 205.785156 C 210.027344 204.9375 208.636719 204.058594 207.265625 203.140625 C 205.894531 202.226562 204.550781 201.277344 203.226562 200.296875 C 201.902344 199.316406 200.605469 198.300781 199.332031 197.257812 C 198.058594 196.210938 196.808594 195.136719 195.589844 194.03125 C 194.367188 192.921875 193.175781 191.789062 192.011719 190.625 C 190.847656 189.457031 189.710938 188.265625 188.605469 187.046875 C 187.5 185.824219 186.421875 184.578125 185.378906 183.304688 C 184.332031 182.03125 183.320312 180.730469 182.339844 179.410156 C 181.355469 178.085938 180.410156 176.738281 179.492188 175.371094 C 178.578125 174 177.695312 172.609375 176.851562 171.195312 C 176.003906 169.78125 175.191406 168.351562 174.414062 166.898438 C 173.636719 165.445312 172.898438 163.972656 172.191406 162.484375 C 171.488281 160.996094 170.820312 159.488281 170.191406 157.96875 C 169.5625 156.445312 168.96875 154.910156 168.414062 153.355469 C 167.859375 151.804688 167.339844 150.242188 166.863281 148.667969 C 166.386719 147.089844 165.945312 145.503906 165.546875 143.90625 C 165.144531 142.304688 164.785156 140.699219 164.464844 139.082031 C 164.140625 137.46875 163.859375 135.84375 163.617188 134.214844 C 163.375 132.585938 163.175781 130.953125 163.011719 129.3125 C 162.851562 127.671875 162.730469 126.03125 162.648438 124.386719 C 162.570312 122.738281 162.527344 121.09375 162.527344 119.445312 C 162.527344 117.796875 162.570312 116.152344 162.648438 114.507812 C 162.730469 112.863281 162.851562 111.21875 163.011719 109.578125 C 163.175781 107.941406 163.375 106.304688 163.617188 104.675781 C 163.859375 103.046875 164.140625 101.425781 164.464844 99.808594 C 164.785156 98.191406 165.144531 96.585938 165.546875 94.988281 C 165.945312 93.390625 166.386719 91.800781 166.863281 90.226562 C 167.339844 88.648438 167.859375 87.085938 168.414062 85.535156 C 168.96875 83.984375 169.5625 82.449219 170.191406 80.925781 C 170.820312 79.402344 171.488281 77.898438 172.191406 76.410156 C 172.898438 74.917969 173.636719 73.449219 174.414062 71.996094 C 175.191406 70.542969 176.003906 69.109375 176.851562 67.695312 C 177.695312 66.285156 178.578125 64.890625 179.492188 63.523438 C 180.410156 62.152344 181.355469 60.804688 182.339844 59.484375 C 183.320312 58.160156 184.332031 56.863281 185.378906 55.589844 C 186.421875 54.316406 187.5 53.066406 188.605469 51.847656 C 189.710938 50.625 190.847656 49.433594 192.011719 48.269531 C 193.175781 47.105469 194.367188 45.96875 195.589844 44.863281 C 196.808594 43.757812 198.058594 42.679688 199.332031 41.636719 C 200.605469 40.589844 201.902344 39.578125 203.226562 38.59375 C 204.550781 37.613281 205.894531 36.664062 207.265625 35.75 C 208.636719 34.835938 210.027344 33.953125 211.4375 33.105469 C 212.851562 32.261719 214.285156 31.449219 215.738281 30.671875 C 217.191406 29.894531 218.660156 29.15625 220.152344 28.449219 C 221.640625 27.746094 223.144531 27.078125 224.667969 26.449219 C 226.191406 25.816406 227.726562 25.226562 229.277344 24.671875 C 230.828125 24.117188 232.390625 23.597656 233.96875 23.121094 C 235.546875 22.640625 237.132812 22.203125 238.730469 21.804688 C 240.328125 21.402344 241.933594 21.042969 243.550781 20.71875 C 245.167969 20.398438 246.789062 20.117188 248.417969 19.875 C 250.046875 19.632812 251.683594 19.433594 253.320312 19.269531 C 254.960938 19.109375 256.605469 18.988281 258.25 18.90625 C 259.894531 18.828125 261.542969 18.785156 263.1875 18.785156 C 264.835938 18.785156 266.480469 18.828125 268.128906 18.90625 C 269.773438 18.988281 271.414062 19.109375 273.054688 19.269531 C 274.695312 19.433594 276.328125 19.632812 277.957031 19.875 C 279.589844 20.117188 281.210938 20.398438 282.828125 20.71875 C 284.441406 21.042969 286.050781 21.402344 287.648438 21.804688 C 289.246094 22.203125 290.832031 22.640625 292.410156 23.121094 C 293.984375 23.597656 295.546875 24.117188 297.101562 24.671875 C 298.652344 25.226562 300.1875 25.816406 301.710938 26.449219 C 303.230469 27.078125 304.738281 27.746094 306.226562 28.449219 C 307.714844 29.15625 309.1875 29.894531 310.640625 30.671875 C 312.09375 31.449219 313.523438 32.261719 314.9375 33.105469 C 316.351562 33.953125 317.742188 34.835938 319.113281 35.75 C 320.480469 36.664062 321.828125 37.613281 323.152344 38.59375 C 324.476562 39.578125 325.773438 40.589844 327.046875 41.636719 C 328.320312 42.679688 329.566406 43.757812 330.789062 44.863281 C 332.007812 45.96875 333.199219 47.105469 334.367188 48.269531 C 335.53125 49.433594 336.667969 50.625 337.773438 51.847656 C 338.878906 53.066406 339.953125 54.316406 341 55.589844 C 342.042969 56.863281 343.058594 58.160156 344.039062 59.484375 C 345.019531 60.804688 345.96875 62.152344 346.882812 63.523438 C 347.800781 64.890625 348.679688 66.285156 349.527344 67.695312 C 350.375 69.109375 351.1875 70.542969 351.960938 71.996094 C 352.738281 73.449219 353.480469 74.917969 354.183594 76.410156 C 354.886719 77.898438 355.554688 79.402344 356.1875 80.925781 C 356.816406 82.449219 357.410156 83.984375 357.964844 85.535156 C 358.519531 87.085938 359.035156 88.648438 359.515625 90.226562 C 359.992188 91.800781 360.429688 93.390625 360.832031 94.988281 C 361.230469 96.585938 361.59375 98.191406 361.914062 99.808594 C 362.234375 101.425781 362.515625 103.046875 362.757812 104.675781 C 363 106.304688 363.203125 107.941406 363.363281 109.578125 C 363.523438 111.21875 363.644531 112.863281 363.726562 114.507812 C 363.808594 116.152344 363.847656 117.796875 363.847656 119.445312 Z M 363.847656 119.445312 " fill-opacity="1" fill-rule="nonzero"/></g></svg>